<svg width="122" height="40" viewBox="0 0 122 40" fill="none" xmlns="http://www.w3.org/2000/svg">
<g clip-path="url(#clip0_25_2)">
<path d="M52.0009 21.0501C52.0009 26.8049 47.4989 31.0456 41.9738 31.0456C36.4487 31.0456 31.9468 26.8049 31.9468 21.0501C31.9468 15.2547 36.4489 11.0547 41.9738 11.0547C47.4988 11.0547 52.0009 15.2547 52.0009 21.0501ZM47.6116 21.0501C47.6116 17.4539 45.0023 14.9934 41.9738 14.9934C38.9453 14.9934 36.3362 17.4539 36.3362 21.0501C36.3362 24.6102 38.9454 27.1069 41.9738 27.1069C45.0022 27.1069 47.6116 24.6057 47.6116 21.0501Z" fill="#EA4335"/>
<path d="M73.6322 21.0501C73.6322 26.8049 69.1301 31.0456 63.6052 31.0456C58.0802 31.0456 53.5781 26.8049 53.5781 21.0501C53.5781 15.2593 58.0802 11.0547 63.6052 11.0547C69.1301 11.0547 73.6322 15.2547 73.6322 21.0501ZM69.2428 21.0501C69.2428 17.4539 66.6337 14.9934 63.6052 14.9934C60.5767 14.9934 57.9675 17.4539 57.9675 21.0501C57.9675 24.6102 60.5768 27.1069 63.6052 27.1069C66.6336 27.1069 69.2428 24.6057 69.2428 21.0501Z" fill="#FBBC05"/>
<path d="M94.3623 11.6585V29.6034C94.3623 36.9851 90.0089 39.9999 84.8624 39.9999C80.0181 39.9999 77.1022 36.7597 76.0027 34.1099L79.8242 32.5191C80.5048 34.146 82.1721 36.0657 84.8581 36.0657C88.1523 36.0657 90.1938 34.0332 90.1938 30.2072V28.7697H90.0405C89.0581 29.982 87.1654 31.041 84.7769 31.041C79.7792 31.041 75.2004 26.6877 75.2004 21.086C75.2004 15.4439 79.7792 11.0544 84.7769 11.0544C87.1609 11.0544 89.0536 12.1135 90.0405 13.2897H90.1938V11.663H94.3623V11.6585ZM90.5047 21.0861C90.5047 17.5666 88.1567 14.9933 85.1689 14.9933C82.1405 14.9933 79.6034 17.5666 79.6034 21.0861C79.6034 24.5697 82.1405 27.1069 85.1689 27.1069C88.1567 27.1069 90.5047 24.5697 90.5047 21.0861Z" fill="#4285F4"/>
<path d="M101.235 1.14014V30.4326H96.9536V1.14014H101.235Z" fill="#34A853"/>
<path d="M117.918 24.3398L121.325 26.6111C120.225 28.2379 117.575 31.0411 112.997 31.0411C107.319 31.0411 103.078 26.6517 103.078 21.0456C103.078 15.1014 107.355 11.05 112.506 11.05C117.693 11.05 120.23 15.178 121.059 17.4088L121.514 18.5445L108.152 24.0785C109.175 26.0839 110.766 27.1069 112.997 27.1069C115.232 27.1069 116.782 26.0073 117.918 24.3398ZM107.431 20.7437L116.363 17.0347C115.872 15.7865 114.394 14.9166 112.654 14.9166C110.424 14.9166 107.319 16.8859 107.431 20.7437Z" fill="#EA4335"/>
<path d="M15.7413 18.4498V14.2091H30.0315C30.1712 14.9482 30.2435 15.8224 30.2435 16.7689C30.2435 19.9504 29.3736 23.8846 26.5706 26.6877C23.844 29.5268 20.3606 31.0411 15.7458 31.0411C7.19244 31.0411 0 24.0739 0 15.5204C0 6.96694 7.19244 0 15.7458 0C20.4777 0 23.8486 1.85666 26.3813 4.27673L23.3889 7.26892C21.5728 5.56549 19.1122 4.24066 15.7413 4.24066C9.49522 4.24066 4.61018 9.27446 4.61018 15.5205C4.61018 21.7666 9.49535 26.8004 15.7413 26.8004C19.7927 26.8004 22.1001 25.1735 23.5782 23.6954C24.777 22.4967 25.5656 20.7842 25.8766 18.4452L15.7413 18.4498Z" fill="#4285F4"/>
</g>
<defs>
<clipPath id="clip0_25_2">
<rect width="121.514" height="40" fill="white"/>
</clipPath>
</defs>
</svg>
