<svg width="121" height="120" viewBox="0 0 121 120" fill="none" xmlns="http://www.w3.org/2000/svg">
<path d="M10.6524 110V100C10.6524 100 35.5762 90 60.5 90C85.4238 90 110.348 100 110.348 100V110H10.6524ZM57.0107 45.5C51.029 26 20.6219 30.5 20.6219 30.5C20.6219 30.5 21.6189 69.5 50.032 63.5C48.0381 49 40.561 45 40.561 45C54.5183 45 55.5152 62 55.5152 62V85C57.0107 85 59.0046 85 60.5 85C61.9954 85 63.9893 85 65.4848 85V64C65.4848 64 65.4848 44.5 80.439 39.5C80.439 39.5 70.4695 54.5 70.4695 64.5C105.363 68 105.363 20 105.363 20C105.363 20 60.9985 15 57.0107 45.5Z" fill="white"/>
</svg>
