<svg width="50" height="50" viewBox="0 0 50 50" fill="none" xmlns="http://www.w3.org/2000/svg">
<g clip-path="url(#clip0_3_325)">
<path d="M25 50.0035C38.8071 50.0035 50 38.8106 50 25.0035C50 11.1964 38.8071 0.00350952 25 0.00350952C11.1929 0.00350952 0 11.1964 0 25.0035C0 38.8106 11.1929 50.0035 25 50.0035Z" fill="#1977F3"/>
<path d="M34.7314 32.2318L35.8388 25.0035H28.9059V20.3136C28.9059 18.3378 29.8727 16.4077 32.9806 16.4077H36.1341V10.2552C36.1341 10.2552 33.2724 9.76656 30.5372 9.76656C24.8277 9.76656 21.0941 13.226 21.0941 19.4944V25.0035H14.7448V32.2318H21.0941V49.7012C22.3667 49.9016 23.6711 50.0035 25 50.0035C26.3289 50.0035 27.6332 49.898 28.9059 49.7012V32.2318H34.7314Z" fill="white"/>
</g>
<defs>
<clipPath id="clip0_3_325">
<rect width="50" height="50" fill="white"/>
</clipPath>
</defs>
</svg>
