<svg width="50" height="50" viewBox="0 0 50 50" fill="none" xmlns="http://www.w3.org/2000/svg">
<g clip-path="url(#clip0_3_318)">
<path d="M25.0122 0.378769C14.7314 0.378769 11.7247 0.389375 11.1402 0.437858C9.03045 0.613232 7.71761 0.945418 6.28735 1.65752C5.18511 2.20485 4.31582 2.8393 3.45789 3.72867C1.89544 5.35059 0.948498 7.34598 0.605705 9.71788C0.439043 10.8694 0.39056 11.1042 0.380712 16.9858C0.376924 18.9464 0.380712 21.5266 0.380712 24.9875C0.380712 35.2599 0.392075 38.2636 0.441316 38.8469C0.611765 40.8999 0.933725 42.1915 1.61552 43.6044C2.91851 46.3088 5.40707 48.3391 8.3388 49.0966C9.35392 49.358 10.4751 49.5019 11.9145 49.5701C12.5243 49.5966 18.74 49.6155 24.9595 49.6155C31.179 49.6155 37.3985 49.608 37.9932 49.5777C39.6598 49.4993 40.6276 49.3693 41.6976 49.0928C44.6483 48.3315 47.0914 46.3315 48.4209 43.5892C49.0895 42.2105 49.4285 40.8696 49.5819 38.9238C49.6152 38.4996 49.6292 31.7358 49.6292 24.9811C49.6292 18.2252 49.6141 11.4739 49.5807 11.0497C49.4254 9.07245 49.0864 7.74294 48.3963 6.33768C47.83 5.18734 47.2013 4.32827 46.2884 3.44989C44.6593 1.89387 42.6669 0.946934 40.2928 0.60452C39.1424 0.438237 38.9133 0.388996 33.0271 0.378769H25.0122Z" fill="url(#paint0_radial_3_318)"/>
<path d="M25.0122 0.378769C14.7314 0.378769 11.7247 0.389375 11.1402 0.437858C9.03045 0.613232 7.71761 0.945418 6.28735 1.65752C5.18511 2.20485 4.31582 2.8393 3.45789 3.72867C1.89544 5.35059 0.948498 7.34598 0.605705 9.71788C0.439043 10.8694 0.39056 11.1042 0.380712 16.9858C0.376924 18.9464 0.380712 21.5266 0.380712 24.9875C0.380712 35.2599 0.392075 38.2636 0.441316 38.8469C0.611765 40.8999 0.933725 42.1915 1.61552 43.6044C2.91851 46.3088 5.40707 48.3391 8.3388 49.0966C9.35392 49.358 10.4751 49.5019 11.9145 49.5701C12.5243 49.5966 18.74 49.6155 24.9595 49.6155C31.179 49.6155 37.3985 49.608 37.9932 49.5777C39.6598 49.4993 40.6276 49.3693 41.6976 49.0928C44.6483 48.3315 47.0914 46.3315 48.4209 43.5892C49.0895 42.2105 49.4285 40.8696 49.5819 38.9238C49.6152 38.4996 49.6292 31.7358 49.6292 24.9811C49.6292 18.2252 49.6141 11.4739 49.5807 11.0497C49.4254 9.07245 49.0864 7.74294 48.3963 6.33768C47.83 5.18734 47.2013 4.32827 46.2884 3.44989C44.6593 1.89387 42.6669 0.946934 40.2928 0.60452C39.1424 0.438237 38.9133 0.388996 33.0271 0.378769H25.0122Z" fill="url(#paint1_radial_3_318)"/>
<path d="M25.0008 6.81798C20.063 6.81798 19.4434 6.83957 17.504 6.92782C15.5685 7.01646 14.2473 7.32289 13.0913 7.77249C11.8955 8.23687 10.8811 8.85807 9.87055 9.86902C8.85922 10.8796 8.23803 11.894 7.77213 13.0894C7.32139 14.2458 7.01458 15.5673 6.92746 17.5021C6.84072 19.4415 6.81799 20.0615 6.81799 24.9992C6.81799 29.937 6.83996 30.5548 6.92784 32.4941C7.01685 34.4296 7.32328 35.7508 7.77251 36.9068C8.23727 38.1026 8.85846 39.117 9.86942 40.1276C10.8796 41.1389 11.894 41.7616 13.089 42.226C14.2458 42.6756 15.5673 42.982 17.5025 43.0707C19.4419 43.1589 20.0612 43.1805 24.9985 43.1805C29.9366 43.1805 30.5544 43.1589 32.4937 43.0707C34.4293 42.982 35.752 42.6756 36.9087 42.226C38.1042 41.7616 39.117 41.1389 40.1272 40.1276C41.1385 39.117 41.7597 38.1026 42.2256 36.9072C42.6726 35.7508 42.9794 34.4293 43.0703 32.4945C43.1574 30.5551 43.1801 29.937 43.1801 24.9992C43.1801 20.0615 43.1574 19.4418 43.0703 17.5025C42.9794 15.567 42.6726 14.2458 42.2256 13.0898C41.7597 11.894 41.1385 10.8796 40.1272 9.86902C39.1159 8.85769 38.1045 8.2365 36.9076 7.77249C35.7486 7.32289 34.4266 7.01646 32.4911 6.92782C30.5517 6.83957 29.9343 6.81798 24.9951 6.81798H25.0008ZM23.3698 10.0944C23.8538 10.0936 24.394 10.0944 25.0008 10.0944C29.8552 10.0944 30.4305 10.1118 32.3475 10.1989C34.1202 10.28 35.0823 10.5762 35.7232 10.8251C36.5716 11.1546 37.1765 11.5485 37.8125 12.1849C38.4489 12.8212 38.8428 13.4272 39.1731 14.2757C39.4219 14.9158 39.7185 15.8779 39.7992 17.6506C39.8863 19.5672 39.9052 20.143 39.9052 24.9951C39.9052 29.8472 39.8863 30.4229 39.7992 32.3396C39.7181 34.1122 39.4219 35.0743 39.1731 35.7145C38.8435 36.5629 38.4489 37.1671 37.8125 37.803C37.1762 38.4394 36.572 38.8333 35.7232 39.1628C35.083 39.4128 34.1202 39.7083 32.3475 39.7893C30.4309 39.8764 29.8552 39.8954 25.0008 39.8954C20.146 39.8954 19.5706 39.8764 17.654 39.7893C15.8814 39.7075 14.9193 39.4113 14.278 39.1625C13.4295 38.8329 12.8235 38.439 12.1871 37.8026C11.5508 37.1663 11.1569 36.5618 10.8266 35.7129C10.5777 35.0728 10.2811 34.1107 10.2005 32.338C10.1133 30.4214 10.0959 29.8457 10.0959 24.9905C10.0959 20.1354 10.1133 19.5627 10.2005 17.6461C10.2815 15.8734 10.5777 14.9113 10.8266 14.2704C11.1561 13.4219 11.5508 12.8159 12.1871 12.1796C12.8235 11.5432 13.4295 11.1493 14.278 10.819C14.9189 10.569 15.8814 10.2736 17.654 10.1921C19.3313 10.1164 19.9812 10.0936 23.3698 10.0898V10.0944ZM34.7058 13.1132C33.5013 13.1132 32.524 14.0893 32.524 15.2942C32.524 16.4987 33.5013 17.476 34.7058 17.476C35.9103 17.476 36.8875 16.4987 36.8875 15.2942C36.8875 14.0897 35.9103 13.1125 34.7058 13.1125V13.1132ZM25.0008 15.6624C19.8445 15.6624 15.6639 19.843 15.6639 24.9992C15.6639 30.1555 19.8445 34.3342 25.0008 34.3342C30.1571 34.3342 34.3361 30.1555 34.3361 24.9992C34.3361 19.843 30.1571 15.6624 25.0008 15.6624ZM25.0008 18.9388C28.3476 18.9388 31.0612 21.652 31.0612 24.9992C31.0612 28.3461 28.3476 31.0597 25.0008 31.0597C21.6535 31.0597 18.9404 28.3461 18.9404 24.9992C18.9404 21.652 21.6535 18.9388 25.0008 18.9388Z" fill="white"/>
</g>
<defs>
<radialGradient id="paint0_radial_3_318" cx="0" cy="0" r="1" gradientUnits="userSpaceOnUse" gradientTransform="translate(13.4612 53.4078) rotate(-90) scale(48.7973 45.3977)">
<stop stop-color="#FFDD55"/>
<stop offset="0.1" stop-color="#FFDD55"/>
<stop offset="0.5" stop-color="#FF543E"/>
<stop offset="1" stop-color="#C837AB"/>
</radialGradient>
<radialGradient id="paint1_radial_3_318" cx="0" cy="0" r="1" gradientUnits="userSpaceOnUse" gradientTransform="translate(-7.87064 3.9257) rotate(78.6776) scale(21.8128 89.936)">
<stop stop-color="#3771C8"/>
<stop offset="0.128" stop-color="#3771C8"/>
<stop offset="1" stop-color="#6600FF" stop-opacity="0"/>
</radialGradient>
<clipPath id="clip0_3_318">
<rect width="50" height="49.9985" fill="white"/>
</clipPath>
</defs>
</svg>
