<svg width="50" height="35" viewBox="0 0 50 35" fill="none" xmlns="http://www.w3.org/2000/svg">
<g clip-path="url(#clip0_3_322)">
<path d="M48.4277 5.50314C47.8554 3.38679 46.2044 1.72955 44.0881 1.16352C41.2453 0.0660311 13.7107 -0.471705 5.72328 1.19496C3.60692 1.76729 1.94969 3.41823 1.38365 5.53458C0.100633 11.1635 0.00314922 23.3333 1.4151 29.088C1.98743 31.2044 3.63837 32.8616 5.75472 33.4277C11.3837 34.7233 38.1447 34.9057 44.1195 33.4277C46.2359 32.8553 47.8931 31.2044 48.4591 29.088C49.8271 22.956 49.9245 11.5409 48.4277 5.50314Z" fill="#FF0000"/>
<path d="M33.0188 17.2956L20.1887 9.9371V24.6541L33.0188 17.2956Z" fill="white"/>
</g>
<defs>
<clipPath id="clip0_3_322">
<rect width="50" height="34.5912" fill="white"/>
</clipPath>
</defs>
</svg>
